<svg version="1.1" viewBox="0.0 0.0 960.0 960.0" fill="none" stroke="none" stroke-linecap="square" stroke-miterlimit="10" xmlns:xlink="http://www.w3.org/1999/xlink" xmlns="http://www.w3.org/2000/svg"><clipPath id="p.0"><path d="m0 0l960.0 0l0 960.0l-960.0 0l0 -960.0z" clip-rule="nonzero"/></clipPath><g clip-path="url(#p.0)"><path fill="#000000" fill-opacity="0.0" d="m0 0l960.0 0l0 960.0l-960.0 0z" fill-rule="evenodd"/><path fill="#000000" fill-opacity="0.0" d="m0 634.7008l960.0 0l0 206.74011l-960.0 0z" fill-rule="evenodd"/><path fill="#8c1d40" d="m352.4045 834.07086l-68.265625 -186.65625l49.0625 0l71.46875 186.65625l-52.265625 0zm-143.73438 0l71.46875 -186.65625l49.0625 0l-68.265625 186.65625l-52.265625 0zm33.609375 -29.859375l0 -43.46875l129.0625 0l0 43.46875l-129.0625 0zm245.58484 33.0625q-13.0625 0 -25.59375 -3.59375q-12.53125 -3.609375 -22.796875 -10.0q-10.265625 -6.40625 -16.9375 -14.53125q-6.671875 -8.140625 -8.0 -17.203125l49.0625 -13.609375q2.40625 6.671875 8.265625 11.34375q5.875 4.65625 15.203125 5.1875q7.46875 0.265625 13.203125 -4.0q5.734375 -4.265625 5.734375 -11.1875q0 -4.546875 -3.34375 -8.671875q-3.328125 -4.140625 -10.53125 -6.0l-28.0 -7.203125q-14.390625 -3.734375 -24.65625 -11.46875q-10.265625 -7.734375 -15.734375 -18.921875q-5.46875 -11.203125 -5.46875 -25.078125q0 -27.453125 18.265625 -42.78125q18.265625 -15.34375 51.328125 -15.34375q17.59375 0 31.06253 4.53125q13.46875 4.53125 23.203125 14.265625q9.734375 9.734375 16.140625 25.46875l-48.81253 14.125q-1.328125 -5.328125 -6.796875 -10.65625q-5.46875 -5.328125 -14.796875 -5.328125q-9.0625 0 -14.0 4.0q-4.9375 3.984375 -4.9375 11.71875q0 4.8125 4.0 8.40625q4.0 3.59375 11.46875 5.46875l28.265656 7.203125q21.34375 5.328125 33.328125 20.9375q12.0 15.59375 12.0 35.59375q0 18.390625 -8.40625 31.1875q-8.390625 12.796875 -24.125 19.46875q-15.7187805 6.671875 -37.59378 6.671875zm171.46243 0q-24.796875 0 -42.671875 -9.0625q-17.859375 -9.078125 -27.328125 -26.0q-9.46875 -16.9375 -9.46875 -40.40625l0 -114.390625l49.34375 0l0 114.390625q0 9.328125 3.71875 16.0q3.734375 6.671875 10.53125 10.140625q6.8125 3.453125 16.40625 3.453125q9.59375 0 16.53125 -3.453125q6.9375 -3.46875 10.53125 -10.140625q3.609375 -6.671875 3.609375 -16.0l0 -114.390625l49.328125 0l0 114.390625q0 23.46875 -9.609375 40.40625q-9.59375 16.921875 -27.59375 26.0q-18.0 9.0625 -43.328125 9.0625z" fill-rule="nonzero"/><path fill="#000000" fill-opacity="0.0" d="m-4.7217846 118.55905l964.7244 0l0 410.8976l-964.7244 0z" fill-rule="evenodd"/><path fill="#0079a9" d="m314.44653 316.00787l-68.26564 -186.65627l49.062515 0l71.46875 186.65627l-52.265625 0zm-143.73439 0l71.46875 -186.65627l49.062515 0l-68.26564 186.65627l-52.265625 0zm33.609375 -29.859375l0 -43.468765l129.06252 0l0 43.468765l-129.06252 0zm258.3817 33.0625q-28.0 0 -49.46875 -12.390625q-21.453125 -12.40625 -33.71875 -34.140625q-12.265625 -21.73439 -12.265625 -50.000015q0 -28.265625 12.265625 -50.0q12.265625 -21.734375 33.71875 -34.125q21.46875 -12.40625 49.46875 -12.40625q21.609375 0 38.9375 7.46875q17.328125 7.46875 29.859375 20.796875q12.53125 13.328125 19.203125 30.9375l-46.9375 14.921875q-3.71875 -8.796875 -9.59375 -15.328125q-5.859375 -6.53125 -13.734375 -10.0q-7.859375 -3.46875 -17.734375 -3.46875q-13.0625 0 -23.203125 6.53125q-10.125 6.53125 -15.859375 18.0q-5.734375 11.46875 -5.734375 26.671875q0 14.9375 5.859375 26.53125q5.875 11.593765 16.140625 18.14064q10.265625 6.53125 23.59375 6.53125q10.40625 0 18.0 -3.59375q7.609375 -3.609375 13.078125 -10.140625q5.46875 -6.5312653 9.46875 -15.343765l46.921875 14.937515q-6.390625 17.59375 -18.9375 31.0625q-12.53125 13.46875 -30.125 20.9375q-17.59375 7.46875 -39.203125 7.46875zm108.267334 -3.203125l0 -186.65627l54.65625 0l45.078125 66.65625l45.0625 -66.65625l54.65625 0l0 186.65627l-49.328125 0l0 -110.39064l-50.125 73.062515l-50.671875 -73.062515l0 110.39064l-49.328125 0z" fill-rule="nonzero"/><path fill="#d9d9d9" d="m468.7237 565.6079l-23.890625 -65.328156l17.171875 0l25.015625 65.328156l-18.296875 0zm-50.296875 0l25.015625 -65.328156l17.171875 0l-23.890625 65.328156l-18.296875 0zm11.75 -10.453125l0 -15.21875l45.171875 0l0 15.21875l-45.171875 0zm70.09244 10.453125l0 -49.46875l-18.46875 0l0 -15.8594055l54.12497 0l0 15.8594055l-18.390625 0l0 49.46875l-17.265594 0z" fill-rule="nonzero"/><path fill="#000000" fill-opacity="0.0" d="m756.0 618.7008l97.322815 0l0 131.84253l-97.322815 0z" fill-rule="evenodd"/><path fill="#434343" d="m789.3125 692.98517q-4.71875 0 -8.84375 -1.765625q-4.109375 -1.765625 -7.234375 -4.875q-3.109375 -3.125 -4.875 -7.234375q-1.765625 -4.125 -1.765625 -8.84375q0 -4.71875 1.765625 -8.84375q1.765625 -4.125 4.875 -7.234375q3.125 -3.125 7.234375 -4.875q4.125 -1.765625 8.84375 -1.765625q4.734375 0 8.84375 1.765625q4.125 1.75 7.234375 4.875q3.125 3.109375 4.890625 7.234375q1.765625 4.125 1.765625 8.84375q0 4.71875 -1.765625 8.84375q-1.765625 4.109375 -4.890625 7.234375q-3.109375 3.109375 -7.234375 4.875q-4.109375 1.765625 -8.84375 1.765625zm0 -6.078125q4.96875 0 8.6875 -2.078125q3.71875 -2.09375 5.75 -5.84375q2.046875 -3.765625 2.046875 -8.71875q0 -5.046875 -2.046875 -8.765625q-2.03125 -3.71875 -5.75 -5.796875q-3.71875 -2.078125 -8.6875 -2.078125q-4.953125 0 -8.671875 2.078125q-3.71875 2.078125 -5.765625 5.796875q-2.03125 3.71875 -2.03125 8.765625q0 4.953125 2.03125 8.71875q2.046875 3.75 5.765625 5.84375q3.71875 2.078125 8.671875 2.078125zm-8.71875 -5.765625l0 -23.28125l9.6875 -0.078125q4.0 0 6.46875 2.25q2.484375 2.234375 2.484375 5.75q0 2.234375 -1.125 4.078125q-1.109375 1.84375 -3.03125 2.796875l5.125 8.484375l-7.046875 0l-4.234375 -7.359375l-2.15625 0l0 7.359375l-6.171875 0zm6.171875 -13.046875l3.1875 0q1.203125 0 2.0 -0.640625q0.8125 -0.640625 0.8125 -1.671875q0 -1.046875 -0.8125 -1.6875q-0.796875 -0.640625 -2.0 -0.640625l-3.1875 0l0 4.640625z" fill-rule="nonzero"/><path fill="#000000" fill-opacity="0.0" d="m0 389.2257l960.0 0l0 52.0l-960.0 0z" fill-rule="evenodd"/><path fill="#0079a9" d="m182.31067 440.02258q-3.265625 0 -6.40625 -0.890625q-3.125 -0.90625 -5.6875 -2.5q-2.5625 -1.609375 -4.234375 -3.640625q-1.671875 -2.03125 -2.0 -4.296875l12.265625 -3.40625q0.59375 1.671875 2.0625 2.84375q1.46875 1.15625 3.796875 1.296875q1.875 0.0625 3.296875 -1.0q1.4375 -1.0625 1.4375 -2.796875q0 -1.140625 -0.828125 -2.171875q-0.828125 -1.03125 -2.640625 -1.5l-7.0 -1.796875q-3.59375 -0.9375 -6.15625 -2.859375q-2.5625 -1.9375 -3.9375 -4.734375q-1.359375 -2.8125 -1.359375 -6.265625q0 -6.875 4.5625 -10.703125q4.5625 -3.828125 12.828125 -3.828125q4.40625 0 7.765625 1.140625q3.375 1.125 5.796875 3.5625q2.4375 2.421875 4.03125 6.359375l-12.1875 3.53125q-0.34375 -1.328125 -1.71875 -2.65625q-1.359375 -1.34375 -3.6875 -1.34375q-2.265625 0 -3.5 1.0q-1.234375 1.0 -1.234375 2.9375q0 1.1875 1.0 2.09375q1.0 0.90625 2.875 1.359375l7.0625 1.8125q5.328125 1.328125 8.328125 5.234375q3.0 3.890625 3.0 8.890625q0 4.59375 -2.109375 7.796875q-2.09375 3.203125 -6.03125 4.875q-3.921875 1.65625 -9.390625 1.65625zm33.993805 -0.796875l0 -35.328125l-13.1875 0l0 -11.328125l38.65625 0l0 11.328125l-13.140625 0l0 35.328125l-12.328125 0zm49.802002 0.796875q-6.203125 0 -10.671875 -2.265625q-4.46875 -2.265625 -6.84375 -6.5q-2.359375 -4.234375 -2.359375 -10.09375l0 -28.59375l12.34375 0l0 28.59375q0 2.328125 0.921875 4.0q0.9375 1.671875 2.640625 2.53125q1.703125 0.859375 4.09375 0.859375q2.40625 0 4.140625 -0.859375q1.734375 -0.859375 2.625 -2.53125q0.90625 -1.671875 0.90625 -4.0l0 -28.59375l12.328125 0l0 28.59375q0 5.859375 -2.40625 10.09375q-2.390625 4.234375 -6.890625 6.5q-4.5 2.265625 -10.828125 2.265625zm27.45633 -0.796875l0 -46.65625l15.59375 0q7.671875 0 13.5625 3.0q5.90625 3.0 9.234375 8.234375q3.328125 5.21875 3.328125 12.09375q0 6.796875 -3.328125 12.0625q-3.328125 5.265625 -9.234375 8.265625q-5.890625 3.0 -13.5625 3.0l-15.59375 0zm12.328125 -11.671875l3.265625 0q2.9375 0 5.40625 -0.859375q2.46875 -0.859375 4.265625 -2.390625q1.796875 -1.546875 2.796875 -3.671875q1.0 -2.140625 1.0 -4.734375q0 -2.59375 -1.0 -4.734375q-1.0 -2.140625 -2.796875 -3.671875q-1.796875 -1.53125 -4.265625 -2.390625q-2.46875 -0.875 -5.40625 -0.875l-3.265625 0l0 23.328125zm35.064514 11.671875l0 -46.65625l31.265625 0l0 11.328125l-18.9375 0l0 6.46875l15.328125 0l0 11.0l-15.328125 0l0 6.53125l19.40625 0l0 11.328125l-31.734375 0zm39.06064 0l0 -46.65625l13.0 0l18.1875 25.65625l0 -25.65625l12.34375 0l0 46.65625l-12.34375 0l-18.859375 -26.59375l0 26.59375l-12.328125 0zm61.853485 0l0 -35.328125l-13.1875 0l0 -11.328125l38.65625 0l0 11.328125l-13.140625 0l0 35.328125l-12.328125 0zm67.46109 0.796875q-7.0 0 -12.375 -3.09375q-5.359375 -3.109375 -8.421875 -8.53125q-3.0625 -5.4375 -3.0625 -12.5q0 -7.0625 3.0625 -12.5q3.0625 -5.4375 8.421875 -8.53125q5.375 -3.09375 12.375 -3.09375q5.3906555 0 9.7187805 1.859375q4.34375 1.859375 7.46875 5.203125q3.140625 3.328125 4.8125 7.734375l-11.734375 3.734375q-0.9375 -2.203125 -2.40625 -3.828125q-1.46875 -1.640625 -3.4375 -2.5q-1.9531555 -0.875 -4.4219055 -0.875q-3.265625 0 -5.796875 1.640625q-2.53125 1.625 -3.96875 4.5q-1.4375 2.859375 -1.4375 6.65625q0 3.734375 1.46875 6.640625q1.46875 2.890625 4.03125 4.53125q2.5625 1.625 5.90625 1.625q2.5937805 0 4.4844055 -0.890625q1.90625 -0.90625 3.265625 -2.53125q1.375 -1.640625 2.375 -3.84375l11.734375 3.734375q-1.59375 4.390625 -4.734375 7.765625q-3.125 3.359375 -7.53125 5.234375q-4.40625 1.859375 -9.7969055 1.859375zm56.5925 -0.796875l0 -46.65625l12.328125 0l0 46.65625l-12.328125 0zm-29.53125 0l0 -46.71875l12.328125 0l0 46.71875l-12.328125 0zm8.46875 -18.0625l0 -11.328125l28.265625 0l0 11.328125l-28.265625 0zm73.78082 18.0625l-17.0625 -46.65625l12.265625 0l17.859375 46.65625l-13.0625 0zm-35.921875 0l17.859375 -46.65625l12.265625 0l-17.0625 46.65625l-13.0625 0zm8.390625 -7.46875l0 -10.859375l32.265625 0l0 10.859375l-32.265625 0zm45.066223 7.46875l0 -46.65625l19.328125 0q5.265625 0 9.328125 2.0625q4.078125 2.0625 6.375 5.734375q2.296875 3.671875 2.296875 8.46875q0 4.796875 -2.296875 8.5q-2.296875 3.6875 -6.375 5.796875q-4.0625 2.09375 -9.328125 2.09375l-7.0 0l0 14.0l-12.328125 0zm12.328125 -25.328125l6.671875 0q2.53125 0 4.09375 -1.390625q1.5625 -1.40625 1.5625 -3.671875q0 -2.203125 -1.5625 -3.59375q-1.5625 -1.40625 -4.09375 -1.40625l-6.671875 0l0 10.0625zm39.660217 25.328125l0 -35.328125l-13.1875 0l0 -11.328125l38.65625 0l0 11.328125l-13.140625 0l0 35.328125l-12.328125 0zm30.598877 0l0 -46.65625l31.265625 0l0 11.328125l-18.9375 0l0 6.46875l15.328125 0l0 11.0l-15.328125 0l0 6.53125l19.40625 0l0 11.328125l-31.734375 0zm39.060608 0l0 -46.65625l19.328125 0q5.265625 0 9.328125 2.03125q4.078125 2.03125 6.375 5.59375q2.296875 3.5625 2.296875 8.234375q0 4.671875 -2.296875 8.3125q-2.296875 3.625 -6.375 5.65625q-4.0625 2.03125 -9.328125 2.03125l-7.0 0l0 14.796875l-12.328125 0zm25.0625 0l-10.40625 -18.328125l9.265625 -6.9375l15.265625 25.265625l-14.125 0zm-12.734375 -26.125l6.328125 0q1.671875 0 2.9375 -0.59375q1.265625 -0.609375 2.0 -1.671875q0.734375 -1.078125 0.734375 -2.40625q0 -2.0 -1.5625 -3.296875q-1.5625 -1.296875 -4.109375 -1.296875l-6.328125 0l0 9.265625z" fill-rule="nonzero"/><path fill="#f1c232" d="m402.36746 518.3727l-235.02364 0l0 23.181152l235.02364 0z" fill-rule="evenodd"/><path fill="#f1c232" d="m557.42255 518.3727l235.02362 0l0 23.181152l-235.02362 0z" fill-rule="evenodd"/></g></svg>