<svg version="1.1" viewBox="0.0 0.0 1920.0 480.0" fill="none" stroke="none" stroke-linecap="square" stroke-miterlimit="10" xmlns:xlink="http://www.w3.org/1999/xlink" xmlns="http://www.w3.org/2000/svg"><clipPath id="p.0"><path d="m0 0l1920.0 0l0 480.0l-1920.0 0l0 -480.0z" clip-rule="nonzero"/></clipPath><g clip-path="url(#p.0)"><path fill="#000000" fill-opacity="0.0" d="m0 0l1920.0 0l0 480.0l-1920.0 0z" fill-rule="evenodd"/><path fill="#000000" fill-opacity="0.0" d="m0 0l1920.0 0l0 480.0l-1920.0 0z" fill-rule="evenodd"/><path fill="#0079a9" d="m402.48596 336.0l-68.265625 -186.65625l49.0625 0l71.46875 186.65625l-52.265625 0zm-143.73438 0l71.46875 -186.65625l49.0625 0l-68.265625 186.65625l-52.265625 0zm33.609375 -29.859375l0 -43.46875l129.0625 0l0 43.46875l-129.0625 0zm258.3817 33.0625q-28.0 0 -49.46875 -12.390625q-21.453125 -12.40625 -33.71875 -34.140625q-12.265625 -21.734375 -12.265625 -50.0q0 -28.265625 12.265625 -50.0q12.265625 -21.734375 33.71875 -34.125q21.46875 -12.40625 49.46875 -12.40625q21.609375 0 38.9375 7.46875q17.328125 7.46875 29.859375 20.796875q12.53125 13.328125 19.203125 30.9375l-46.9375 14.921875q-3.71875 -8.796875 -9.59375 -15.328125q-5.859375 -6.53125 -13.734375 -10.0q-7.859375 -3.46875 -17.734375 -3.46875q-13.0625 0 -23.203125 6.53125q-10.125 6.53125 -15.859375 18.0q-5.734375 11.46875 -5.734375 26.671875q0 14.9375 5.859375 26.53125q5.875 11.59375 16.140625 18.140625q10.265625 6.53125 23.59375 6.53125q10.40625 0 18.0 -3.59375q7.609375 -3.609375 13.078125 -10.140625q5.46875 -6.53125 9.46875 -15.34375l46.921875 14.9375q-6.390625 17.59375 -18.9375 31.0625q-12.53125 13.46875 -30.125 20.9375q-17.59375 7.46875 -39.203125 7.46875zm108.267334 -3.203125l0 -186.65625l54.65625 0l45.078125 66.65625l45.0625 -66.65625l54.65625 0l0 186.65625l-49.328125 0l0 -110.390625l-50.125 73.0625l-50.671875 -73.0625l0 110.390625l-49.328125 0z" fill-rule="nonzero"/><path fill="#8c1d40" d="m1262.323 336.0l-68.265625 -186.65625l49.0625 0l71.46875 186.65625l-52.265625 0zm-143.73438 0l71.46875 -186.65625l49.0625 0l-68.265625 186.65625l-52.265625 0zm33.609375 -29.859375l0 -43.46875l129.0625 0l0 43.46875l-129.0625 0zm245.58484 33.0625q-13.0625 0 -25.59375 -3.59375q-12.53125 -3.609375 -22.796875 -10.0q-10.265625 -6.40625 -16.9375 -14.53125q-6.671875 -8.140625 -8.0 -17.203125l49.0625 -13.609375q2.40625 6.671875 8.265625 11.34375q5.875 4.65625 15.203125 5.1875q7.46875 0.265625 13.203125 -4.0q5.734375 -4.265625 5.734375 -11.1875q0 -4.546875 -3.34375 -8.671875q-3.328125 -4.140625 -10.53125 -6.0l-28.0 -7.203125q-14.390625 -3.734375 -24.65625 -11.46875q-10.265625 -7.734375 -15.734375 -18.921875q-5.46875 -11.203125 -5.46875 -25.078125q0 -27.453125 18.265625 -42.78125q18.265625 -15.34375 51.328125 -15.34375q17.59375 0 31.0625 4.53125q13.46875 4.53125 23.203125 14.265625q9.734375 9.734375 16.140625 25.46875l-48.8125 14.125q-1.328125 -5.328125 -6.796875 -10.65625q-5.46875 -5.328125 -14.796875 -5.328125q-9.0625 0 -14.0 4.0q-4.9375 3.984375 -4.9375 11.71875q0 4.8125 4.0 8.40625q4.0 3.59375 11.46875 5.46875l28.265625 7.203125q21.34375 5.328125 33.328125 20.9375q12.0 15.59375 12.0 35.59375q0 18.390625 -8.40625 31.1875q-8.390625 12.796875 -24.125 19.46875q-15.71875 6.671875 -37.59375 6.671875zm171.46252 0q-24.796875 0 -42.671875 -9.0625q-17.859375 -9.078125 -27.328125 -26.0q-9.46875 -16.9375 -9.46875 -40.40625l0 -114.390625l49.34375 0l0 114.390625q0 9.328125 3.71875 16.0q3.734375 6.671875 10.53125 10.140625q6.8125 3.453125 16.40625 3.453125q9.59375 0 16.53125 -3.453125q6.9375 -3.46875 10.53125 -10.140625q3.609375 -6.671875 3.609375 -16.0l0 -114.390625l49.328125 0l0 114.390625q0 23.46875 -9.609375 40.40625q-9.59375 16.921875 -27.59375 26.0q-18.0 9.0625 -43.328125 9.0625z" fill-rule="nonzero"/><path fill="#000000" fill-opacity="0.0" d="m1660.0 120.64042l73.385864 0l0 87.71653l-73.385864 0z" fill-rule="evenodd"/><path fill="#434343" d="m1693.3125 194.92479q-4.71875 0 -8.84375 -1.765625q-4.109375 -1.765625 -7.234375 -4.875q-3.109375 -3.125 -4.875 -7.234375q-1.765625 -4.125 -1.765625 -8.84375q0 -4.71875 1.765625 -8.84375q1.765625 -4.125 4.875 -7.234375q3.125 -3.125 7.234375 -4.875q4.125 -1.765625 8.84375 -1.765625q4.734375 0 8.84375 1.765625q4.125 1.75 7.234375 4.875q3.125 3.109375 4.890625 7.234375q1.765625 4.125 1.765625 8.84375q0 4.71875 -1.765625 8.84375q-1.765625 4.109375 -4.890625 7.234375q-3.109375 3.109375 -7.234375 4.875q-4.109375 1.765625 -8.84375 1.765625zm0 -6.078125q4.96875 0 8.6875 -2.078125q3.71875 -2.09375 5.75 -5.84375q2.046875 -3.765625 2.046875 -8.71875q0 -5.046875 -2.046875 -8.765625q-2.03125 -3.71875 -5.75 -5.796875q-3.71875 -2.078125 -8.6875 -2.078125q-4.953125 0 -8.671875 2.078125q-3.71875 2.078125 -5.765625 5.796875q-2.03125 3.71875 -2.03125 8.765625q0 4.953125 2.03125 8.71875q2.046875 3.75 5.765625 5.84375q3.71875 2.078125 8.671875 2.078125zm-8.71875 -5.765625l0 -23.28125l9.6875 -0.078125q4.0 0 6.46875 2.25q2.484375 2.234375 2.484375 5.75q0 2.234375 -1.125 4.078125q-1.109375 1.84375 -3.03125 2.796875l5.125 8.484375l-7.046875 0l-4.234375 -7.359375l-2.15625 0l0 7.359375l-6.171875 0zm6.171875 -13.046875l3.1875 0q1.203125 0 2.0 -0.640625q0.8125 -0.640625 0.8125 -1.671875q0 -1.046875 -0.8125 -1.6875q-0.796875 -0.640625 -2.0 -0.640625l-3.1875 0l0 4.640625z" fill-rule="nonzero"/><path fill="#000000" fill-opacity="0.0" d="m0 2.0l1920.0 0l0 480.0l-1920.0 0z" fill-rule="evenodd"/><path fill="#434343" d="m989.93567 285.2l-30.71875 -84.0l22.078125 0l32.171875 84.0l-23.53125 0zm-64.671875 0l32.15625 -84.0l22.078125 0l-30.71875 84.0l-23.515625 0zm15.109375 -13.4375l0 -19.5625l58.09375 0l0 19.5625l-58.09375 0zm90.12366 13.4375l0 -63.59375l-23.75 0l0 -20.40625l69.59375 0l0 20.40625l-23.640625 0l0 63.59375l-22.203125 0z" fill-rule="nonzero"/><path fill="#f1c232" d="m885.0105 150.55905l284.75586 0l0 12.0l-284.75586 0z" fill-rule="evenodd"/><path fill="#f1c232" d="m885.0105 324.05774l220.0 0l0 12.0l-220.0 0z" fill-rule="evenodd"/></g></svg>